<svg width="210" height="34" viewBox="0 0 210 34" fill="none" xmlns="http://www.w3.org/2000/svg">
<path d="M28.0769 14.5385V25L14.5385 33L5.92308 28.0769M22.5385 21.9231L14.5385 26.2308L6.53846 20.6923M6.53846 20.6923L1 24.5V24.3846V9.61539L14.5385 1L26.8462 8.38462L21.3077 12.0769L14.5385 8.38462L6.53846 12.6923V20.6923Z" stroke="url(#paint0_linear_53_130)" stroke-width="2" stroke-linecap="round" stroke-linejoin="round"/>
<path d="M47.7802 27.224C45.8202 27.224 44.0468 26.7947 42.4602 25.936C40.8922 25.0587 39.6602 23.864 38.7642 22.352C37.8682 20.8213 37.4202 19.104 37.4202 17.2C37.4202 15.296 37.8682 13.588 38.7642 12.076C39.6602 10.5453 40.9015 9.35067 42.4882 8.492C44.0748 7.61467 45.8482 7.176 47.8082 7.176C49.3388 7.176 50.7388 7.43733 52.0082 7.96C53.2775 8.464 54.3602 9.22 55.2562 10.228L53.4362 11.992C51.9615 10.4427 50.1228 9.668 47.9202 9.668C46.4642 9.668 45.1482 9.99467 43.9722 10.648C42.7962 11.3013 41.8722 12.2067 41.2002 13.364C40.5468 14.5027 40.2202 15.7813 40.2202 17.2C40.2202 18.6187 40.5468 19.9067 41.2002 21.064C41.8722 22.2027 42.7962 23.0987 43.9722 23.752C45.1482 24.4053 46.4642 24.732 47.9202 24.732C50.1042 24.732 51.9428 23.948 53.4362 22.38L55.2562 24.144C54.3602 25.152 53.2682 25.9173 51.9802 26.44C50.7108 26.9627 49.3108 27.224 47.7802 27.224ZM67.6884 27.224C65.7097 27.224 63.9271 26.7947 62.3404 25.936C60.7537 25.0587 59.5031 23.8547 58.5884 22.324C57.6924 20.7933 57.2444 19.0853 57.2444 17.2C57.2444 15.3147 57.6924 13.6067 58.5884 12.076C59.5031 10.5453 60.7537 9.35067 62.3404 8.492C63.9271 7.61467 65.7097 7.176 67.6884 7.176C69.6484 7.176 71.4217 7.61467 73.0084 8.492C74.5951 9.35067 75.8364 10.5453 76.7324 12.076C77.6284 13.588 78.0764 15.296 78.0764 17.2C78.0764 19.104 77.6284 20.8213 76.7324 22.352C75.8364 23.864 74.5951 25.0587 73.0084 25.936C71.4217 26.7947 69.6484 27.224 67.6884 27.224ZM67.6884 24.732C69.1257 24.732 70.4137 24.4053 71.5524 23.752C72.7097 23.0987 73.6151 22.2027 74.2684 21.064C74.9404 19.9067 75.2764 18.6187 75.2764 17.2C75.2764 15.7813 74.9404 14.5027 74.2684 13.364C73.6151 12.2067 72.7097 11.3013 71.5524 10.648C70.4137 9.99467 69.1257 9.668 67.6884 9.668C66.2511 9.668 64.9444 9.99467 63.7684 10.648C62.6111 11.3013 61.6964 12.2067 61.0244 13.364C60.3711 14.5027 60.0444 15.7813 60.0444 17.2C60.0444 18.6187 60.3711 19.9067 61.0244 21.064C61.6964 22.2027 62.6111 23.0987 63.7684 23.752C64.9444 24.4053 66.2511 24.732 67.6884 24.732ZM99.212 7.4V27H96.916L85.156 12.384V27H82.356V7.4H84.652L96.412 22.016V7.4H99.212ZM110.791 27.224C109.316 27.224 107.888 27 106.507 26.552C105.144 26.0853 104.071 25.488 103.287 24.76L104.323 22.576C105.069 23.248 106.021 23.7987 107.179 24.228C108.355 24.6387 109.559 24.844 110.791 24.844C112.415 24.844 113.628 24.5733 114.431 24.032C115.233 23.472 115.635 22.7347 115.635 21.82C115.635 21.148 115.411 20.6067 114.963 20.196C114.533 19.7667 113.992 19.44 113.339 19.216C112.704 18.992 111.799 18.74 110.623 18.46C109.148 18.1053 107.953 17.7507 107.039 17.396C106.143 17.0413 105.368 16.5 104.715 15.772C104.08 15.0253 103.763 14.0267 103.763 12.776C103.763 11.7307 104.033 10.788 104.575 9.948C105.135 9.108 105.975 8.436 107.095 7.932C108.215 7.428 109.605 7.176 111.267 7.176C112.424 7.176 113.563 7.32533 114.683 7.624C115.803 7.92267 116.764 8.352 117.567 8.912L116.643 11.152C115.821 10.6293 114.944 10.2373 114.011 9.976C113.077 9.696 112.163 9.556 111.267 9.556C109.68 9.556 108.485 9.84533 107.683 10.424C106.899 11.0027 106.507 11.7493 106.507 12.664C106.507 13.336 106.731 13.8867 107.179 14.316C107.627 14.7267 108.177 15.0533 108.831 15.296C109.503 15.52 110.408 15.7627 111.547 16.024C113.021 16.3787 114.207 16.7333 115.103 17.088C115.999 17.4427 116.764 17.984 117.399 18.712C118.052 19.44 118.379 20.42 118.379 21.652C118.379 22.6787 118.099 23.6213 117.539 24.48C116.979 25.32 116.129 25.992 114.991 26.496C113.852 26.9813 112.452 27.224 110.791 27.224ZM131.317 27.224C129.339 27.224 127.556 26.7947 125.969 25.936C124.383 25.0587 123.132 23.8547 122.217 22.324C121.321 20.7933 120.873 19.0853 120.873 17.2C120.873 15.3147 121.321 13.6067 122.217 12.076C123.132 10.5453 124.383 9.35067 125.969 8.492C127.556 7.61467 129.339 7.176 131.317 7.176C133.277 7.176 135.051 7.61467 136.637 8.492C138.224 9.35067 139.465 10.5453 140.361 12.076C141.257 13.588 141.705 15.296 141.705 17.2C141.705 19.104 141.257 20.8213 140.361 22.352C139.465 23.864 138.224 25.0587 136.637 25.936C135.051 26.7947 133.277 27.224 131.317 27.224ZM131.317 24.732C132.755 24.732 134.043 24.4053 135.181 23.752C136.339 23.0987 137.244 22.2027 137.897 21.064C138.569 19.9067 138.905 18.6187 138.905 17.2C138.905 15.7813 138.569 14.5027 137.897 13.364C137.244 12.2067 136.339 11.3013 135.181 10.648C134.043 9.99467 132.755 9.668 131.317 9.668C129.88 9.668 128.573 9.99467 127.397 10.648C126.24 11.3013 125.325 12.2067 124.653 13.364C124 14.5027 123.673 15.7813 123.673 17.2C123.673 18.6187 124 19.9067 124.653 21.064C125.325 22.2027 126.24 23.0987 127.397 23.752C128.573 24.4053 129.88 24.732 131.317 24.732ZM159.089 27L154.861 20.98C154.338 21.0173 153.928 21.036 153.629 21.036H148.785V27H145.985V7.4H153.629C156.168 7.4 158.165 8.00667 159.621 9.22C161.077 10.4333 161.805 12.104 161.805 14.232C161.805 15.744 161.432 17.032 160.685 18.096C159.938 19.16 158.874 19.9347 157.493 20.42L162.141 27H159.089ZM153.545 18.656C155.318 18.656 156.672 18.2733 157.605 17.508C158.538 16.7427 159.005 15.6507 159.005 14.232C159.005 12.8133 158.538 11.7307 157.605 10.984C156.672 10.2187 155.318 9.836 153.545 9.836H148.785V18.656H153.545ZM169.947 9.836H163.227V7.4H179.439V9.836H172.719V27H169.947V9.836ZM182.489 7.4H185.289V27H182.489V7.4ZM203.645 22.1H193.229L191.073 27H188.189L197.065 7.4H199.837L208.741 27H205.801L203.645 22.1ZM202.665 19.86L198.437 10.256L194.209 19.86H202.665Z" fill="white"/>
<defs>
<linearGradient id="paint0_linear_53_130" x1="14.5385" y1="1" x2="14.5385" y2="33" gradientUnits="userSpaceOnUse">
<stop stop-color="#B731FF"/>
<stop offset="1" stop-color="#1D2CDF"/>
</linearGradient>
</defs>
</svg>
