<svg width="676" height="601" viewBox="0 0 676 601" fill="none" xmlns="http://www.w3.org/2000/svg">
<g clip-path="url(#clip0_1023_623)">
<path opacity="0.86" d="M256.419 373.767L562.931 372.928C589.164 372.928 630.762 362.607 646.728 343.226C680.892 301.736 704.009 196.119 589.271 155.118C437.572 100.893 517.298 0 383.725 0C250.152 0 286.227 77.2793 239.815 81.0925C220.06 82.7018 193.225 82.5968 166.886 81.7922C125.005 80.4978 92.0812 114.292 98.7722 151.97C100.719 162.85 101.18 172.82 98.9847 180.097C89.6739 211.197 26.0914 196.469 13.3112 271.51C4.1774 325.14 47.616 373.767 97.1083 373.767H256.419Z" fill="#1D0668" fill-opacity="0.5"/>
<path d="M61.0798 163.717C64.4226 147.216 53.5956 131.161 36.8972 127.858C20.1988 124.555 3.95219 135.254 0.609447 151.755C-2.73329 168.256 8.09365 184.31 24.7921 187.614C41.4905 190.917 57.7371 180.218 61.0798 163.717Z" fill="#6068B9"/>
<path d="M630.728 103.728C651.673 83.0299 651.674 49.4718 630.728 28.7738C609.782 8.07584 575.823 8.07587 554.877 28.7738C533.932 49.4718 533.932 83.0299 554.877 103.728C575.823 124.426 609.782 124.426 630.728 103.728Z" fill="#6068B9"/>
<path d="M557.869 64.6851C556.771 57.7583 554.435 51.3912 551.142 45.7239C549.691 43.205 546.009 43.17 544.416 45.6189L535.99 58.7029L545.726 64.825C546.54 65.3148 546.752 66.3993 546.257 67.169C545.761 67.9736 544.664 68.1835 543.885 67.6937L534.149 61.5715L530.326 67.5188L540.061 73.641C540.876 74.1307 541.088 75.2152 540.592 75.9849C540.097 76.7895 538.999 76.9994 538.221 76.5097L528.485 70.3875L525.546 74.9704L535.247 81.0925C536.061 81.5823 536.273 82.6668 535.778 83.4364C535.282 84.2411 534.185 84.451 533.406 83.9612L523.706 77.839L520.236 83.2265C517.758 87.0748 514.112 90.1534 509.722 91.6227C503.845 93.6167 497.579 92.8821 492.445 89.6286L448.263 61.8514L450.104 58.9827L481.187 78.5387L493.932 58.7379C493.578 58.7379 493.224 58.6679 492.87 58.493L481.719 51.4612C480.904 50.9714 480.692 49.8869 481.187 49.1173C481.683 48.3127 482.781 48.1028 483.559 48.5925L494.711 55.6243C495.03 55.8342 495.278 56.1141 495.384 56.4639L498.712 51.3213C498.358 51.3213 498.004 51.2513 497.685 51.0764L486.533 44.0446C485.719 43.5549 485.507 42.4704 486.002 41.7007C486.498 40.8961 487.595 40.6862 488.374 41.176L499.526 48.2077C499.844 48.4176 500.057 48.6975 500.198 49.0123L504.376 42.5054C504.022 42.5054 503.668 42.4354 503.349 42.2605L492.198 35.2287C491.383 34.7389 491.171 33.6544 491.667 32.8848C492.162 32.0802 493.26 31.8703 494.038 32.36L505.19 39.3918C505.509 39.6017 505.721 39.8816 505.863 40.1964L517.333 22.3547C518.006 21.3401 517.439 19.9758 516.236 19.6959C507.279 17.4569 497.614 17.4219 487.985 19.9758C460.194 27.4273 442.564 55.0995 447.732 83.0866C448.971 89.8385 451.414 96.0306 454.742 101.558C453.822 102.573 452.972 103.657 452.228 104.847L357.881 251.114C350.447 262.624 352.748 278.052 363.687 286.378C376.184 295.858 393.921 292.605 402.205 279.731L496.871 132.939C497.827 131.434 498.641 129.86 499.278 128.251C505.509 128.636 511.917 127.971 518.324 126.152C545.089 118.49 562.152 91.9375 557.833 64.7201L557.869 64.6851Z" fill="url(#paint0_linear_1023_623)"/>
<path d="M294.865 157.077L270.19 153.019C267.783 152.634 265.729 151.025 264.809 148.786L260.667 138.921C259.746 136.682 260.03 134.128 261.446 132.169L275.996 112.053C278.014 109.254 277.695 105.441 275.253 103.027L263.428 91.3427C260.985 88.9289 257.127 88.614 254.294 90.6081L233.938 104.986C231.956 106.386 229.371 106.666 227.105 105.756L217.122 101.663C214.856 100.753 213.263 98.7243 212.838 96.3454L208.732 71.9617C208.165 68.5683 205.191 66.1194 201.757 66.1194H185.012C181.543 66.1194 178.604 68.6032 178.038 71.9617L173.931 96.3454C173.542 98.7243 171.913 100.753 169.648 101.663L159.664 105.756C157.398 106.666 154.814 106.386 152.832 104.986L132.475 90.6081C129.643 88.614 125.784 88.9289 123.341 91.3427L111.517 103.027C109.074 105.441 108.756 109.254 110.774 112.053L125.324 132.169C126.74 134.128 127.023 136.682 126.103 138.921L121.961 148.786C121.04 151.025 118.987 152.599 116.58 153.019L91.9042 157.077C88.5056 157.637 85.9921 160.576 85.9921 163.969V180.517C85.9921 183.945 88.5056 186.849 91.9042 187.408L115.765 191.327C118.35 191.746 120.509 193.531 121.288 195.979C122.421 199.513 123.766 202.941 125.395 206.23C126.492 208.469 126.174 211.127 124.722 213.156L110.809 232.433C108.791 235.231 109.11 239.044 111.552 241.458L123.377 253.143C125.82 255.557 129.678 255.872 132.511 253.878L151.522 240.444C153.61 238.975 156.407 238.66 158.708 239.849C162.213 241.633 165.86 243.173 169.683 244.397C172.126 245.202 173.86 247.336 174.285 249.855L178.109 272.524C178.675 275.917 181.649 278.366 185.083 278.366H201.828C205.298 278.366 208.236 275.882 208.803 272.524L212.626 249.855C213.051 247.336 214.786 245.202 217.228 244.397C221.016 243.173 224.698 241.633 228.203 239.849C230.504 238.66 233.265 238.94 235.39 240.444C240.275 243.872 248.984 250.029 254.436 253.878C257.268 255.872 261.092 255.557 263.534 253.108L275.359 241.423C277.802 239.01 278.12 235.196 276.102 232.398L262.189 213.121C260.738 211.092 260.419 208.434 261.517 206.195C263.145 202.906 264.49 199.478 265.623 195.944C266.402 193.496 268.562 191.711 271.146 191.292L295.007 187.373C298.406 186.814 300.919 183.875 300.919 180.482V163.934C300.919 160.506 298.406 157.602 295.007 157.042L294.865 157.077ZM193.332 218.229C167.63 218.229 146.813 197.659 146.813 172.26C146.813 146.862 167.63 126.292 193.332 126.292C219.034 126.292 239.85 146.862 239.85 172.26C239.85 197.659 219.034 218.229 193.332 218.229Z" fill="url(#paint1_linear_1023_623)" fill-opacity="0.7"/>
<path d="M539.424 236.911L528.308 235.091C527.211 234.916 526.29 234.182 525.901 233.202L524.024 228.759C523.6 227.745 523.741 226.59 524.378 225.716L530.928 216.655C531.848 215.395 531.707 213.681 530.574 212.597L525.228 207.314C524.131 206.23 522.396 206.09 521.121 206.964L511.952 213.436C511.067 214.066 509.899 214.206 508.872 213.786L504.376 211.932C503.35 211.512 502.641 210.603 502.464 209.553L500.624 198.568C500.376 197.064 499.03 195.944 497.473 195.944H489.932C488.374 195.944 487.029 197.064 486.781 198.568L484.94 209.553C484.763 210.638 484.02 211.547 483.029 211.932L478.533 213.786C477.506 214.206 476.338 214.066 475.453 213.436L466.283 206.964C465.009 206.055 463.274 206.195 462.177 207.314L456.831 212.597C455.733 213.681 455.592 215.395 456.477 216.655L463.026 225.716C463.664 226.59 463.805 227.745 463.38 228.759L461.504 233.202C461.079 234.217 460.159 234.916 459.097 235.091L447.98 236.911C446.458 237.155 445.325 238.485 445.325 240.024V247.476C445.325 249.015 446.458 250.344 447.98 250.589L458.743 252.373C459.911 252.548 460.867 253.353 461.221 254.472C461.716 256.082 462.354 257.621 463.062 259.09C463.557 260.105 463.416 261.294 462.743 262.204L456.477 270.88C455.556 272.139 455.698 273.853 456.831 274.938L462.177 280.221C463.274 281.305 465.009 281.445 466.283 280.57L474.851 274.518C475.807 273.853 477.046 273.714 478.072 274.238C479.665 275.043 481.294 275.743 482.993 276.302C484.091 276.652 484.87 277.632 485.082 278.751L486.817 288.966C487.064 290.471 488.41 291.59 489.967 291.59H497.508C499.066 291.59 500.411 290.471 500.659 288.966L502.394 278.751C502.571 277.632 503.35 276.652 504.482 276.302C506.182 275.743 507.846 275.043 509.403 274.238C510.43 273.714 511.704 273.818 512.625 274.518C514.82 276.057 518.749 278.821 521.192 280.57C522.467 281.48 524.201 281.305 525.299 280.221L530.645 274.938C531.742 273.853 531.884 272.139 530.999 270.88L524.732 262.204C524.06 261.294 523.918 260.105 524.414 259.09C525.157 257.621 525.759 256.082 526.255 254.472C526.609 253.353 527.6 252.548 528.733 252.373L539.46 250.589C540.982 250.344 542.115 249.015 542.115 247.476V240.024C542.115 238.485 540.982 237.155 539.46 236.911H539.424ZM493.685 264.443C482.108 264.443 472.727 255.172 472.727 243.732C472.727 232.293 482.108 223.022 493.685 223.022C505.261 223.022 514.643 232.293 514.643 243.732C514.643 255.172 505.261 264.443 493.685 264.443Z" fill="url(#paint2_linear_1023_623)" fill-opacity="0.7"/>
<path d="M348.712 174.01C387.777 174.01 419.446 142.715 419.446 104.112C419.446 65.5085 387.777 34.2142 348.712 34.2142C309.647 34.2142 277.979 65.5085 277.979 104.112C277.979 142.715 309.647 174.01 348.712 174.01Z" fill="#313770"/>
<path d="M348.712 160.261C380.093 160.261 405.533 135.122 405.533 104.112C405.533 73.1016 380.093 47.9628 348.712 47.9628C317.331 47.9628 291.891 73.1016 291.891 104.112C291.891 135.122 317.331 160.261 348.712 160.261Z" fill="#CBECE5"/>
<path d="M346.553 115.726C346.022 115.691 345.491 115.551 344.995 115.306C343.508 114.572 342.623 112.997 342.729 111.353L345.632 73.3961C345.738 71.8219 347.119 70.6674 348.712 70.7724C350.305 70.8773 351.474 72.2417 351.367 73.8159L348.748 107.96L370.768 89.2436C371.971 88.2291 373.777 88.3691 374.803 89.5585C375.83 90.7479 375.688 92.5321 374.485 93.5466L349.526 114.747C348.677 115.481 347.615 115.796 346.517 115.726H346.553Z" fill="#313770"/>
<path d="M475.452 274.763H211.281V126.606C211.281 122.198 214.892 118.63 219.352 118.63H467.416C471.877 118.63 475.488 122.198 475.488 126.606V274.798L475.452 274.763Z" fill="url(#paint3_linear_1023_623)"/>
<path d="M463.77 129.475H222.928C222.166 129.475 221.547 130.086 221.547 130.839V261.469C221.547 262.223 222.166 262.833 222.928 262.833H463.77C464.532 262.833 465.15 262.223 465.15 261.469V130.839C465.15 130.086 464.532 129.475 463.77 129.475Z" fill="#B6B6B6"/>
<path d="M211.139 274.763H475.452L519.245 343.541C521.298 346.935 518.82 351.203 514.82 351.203H173.683C168.196 351.203 164.868 345.186 167.878 340.603L211.139 274.763Z" fill="#44275D"/>
<path d="M211.599 274.763H475.523L516.271 338.049C518.289 341.162 515.846 345.116 511.917 345.116H176.551C171.135 345.116 167.878 339.553 170.816 335.355L211.599 274.763Z" fill="url(#paint4_linear_1023_623)"/>
<path d="M343.367 126.362C344.735 126.362 345.845 125.265 345.845 123.913C345.845 122.56 344.735 121.464 343.367 121.464C341.998 121.464 340.888 122.56 340.888 123.913C340.888 125.265 341.998 126.362 343.367 126.362Z" fill="#FAF4DA"/>
<path d="M404.294 340.253H282.368C279.359 340.253 277.2 337.454 277.979 334.585L281.271 322.446C281.802 320.487 283.608 319.123 285.661 319.123H398.594C400.364 319.123 401.993 320.137 402.736 321.746L408.401 333.886C409.781 336.859 407.586 340.288 404.258 340.288L404.294 340.253Z" fill="#02687F"/>
<path d="M233.124 277.632H455.45C457.22 277.632 458.849 278.646 459.592 280.22L474.107 310.167C475.559 313.175 473.328 316.674 469.965 316.674H216.733C213.263 316.674 211.033 313 212.697 309.957L229.123 280.01C229.938 278.541 231.495 277.632 233.159 277.632H233.124Z" fill="#02687F"/>
<path d="M227.615 283.876L460.981 283.876" stroke="#008196" stroke-miterlimit="10" stroke-linecap="round"/>
<path d="M222.684 293.609L465.911 293.609" stroke="#008196" stroke-miterlimit="10" stroke-linecap="round"/>
<path d="M215.289 305.775L471.663 305.775" stroke="#008196" stroke-miterlimit="10" stroke-linecap="round"/>
<path d="M327.863 277.387V316.319" stroke="#008196" stroke-miterlimit="10" stroke-linecap="round"/>
<path d="M350.871 277.387V316.319" stroke="#008196" stroke-miterlimit="10" stroke-linecap="round"/>
<path d="M283.491 277.387L274.452 316.319" stroke="#008196" stroke-miterlimit="10" stroke-linecap="round"/>
<path d="M306.499 277.387L302.39 316.319" stroke="#008196" stroke-miterlimit="10" stroke-linecap="round"/>
<path d="M241.583 277.387L225.149 316.319" stroke="#008196" stroke-miterlimit="10" stroke-linecap="round"/>
<path d="M262.948 277.387L251.444 316.319" stroke="#008196" stroke-miterlimit="10" stroke-linecap="round"/>
<path d="M397.709 277.387L406.748 316.319" stroke="#008196" stroke-miterlimit="10" stroke-linecap="round"/>
<path d="M373.879 277.387L378.809 316.319" stroke="#008196" stroke-miterlimit="10" stroke-linecap="round"/>
<path d="M439.616 277.387L455.229 316.319" stroke="#008196" stroke-miterlimit="10" stroke-linecap="round"/>
<path d="M418.252 277.387L429.756 316.319" stroke="#008196" stroke-miterlimit="10" stroke-linecap="round"/>
<path opacity="0.86" d="M287.643 145.778H247.957C244.106 145.778 240.983 148.863 240.983 152.669V183.945C240.983 187.751 244.106 190.836 247.957 190.836H287.643C291.495 190.836 294.617 187.751 294.617 183.945V152.669C294.617 148.863 291.495 145.778 287.643 145.778Z" fill="#6068B9"/>
<path d="M323.683 145.778H319.222C318.968 145.778 318.762 145.981 318.762 146.232V251.359C318.762 251.61 318.968 251.814 319.222 251.814H323.683C323.937 251.814 324.143 251.61 324.143 251.359V146.232C324.143 145.981 323.937 145.778 323.683 145.778Z" fill="#6068B9"/>
<path d="M309.804 201.472H241.904C241.395 201.472 240.983 201.879 240.983 202.381V205.88C240.983 206.382 241.395 206.789 241.904 206.789H309.804C310.313 206.789 310.725 206.382 310.725 205.88V202.381C310.725 201.879 310.313 201.472 309.804 201.472Z" fill="#6068B9"/>
<path d="M309.804 214.696H241.904C241.395 214.696 240.983 215.103 240.983 215.605V219.104C240.983 219.606 241.395 220.013 241.904 220.013H309.804C310.313 220.013 310.725 219.606 310.725 219.104V215.605C310.725 215.103 310.313 214.696 309.804 214.696Z" fill="#6068B9"/>
<path d="M309.804 227.955H241.904C241.395 227.955 240.983 228.362 240.983 228.864V232.362C240.983 232.865 241.395 233.272 241.904 233.272H309.804C310.313 233.272 310.725 232.865 310.725 232.362V228.864C310.725 228.362 310.313 227.955 309.804 227.955Z" fill="#6068B9"/>
<path d="M237.053 169.496V154.593C237.053 152.984 238.399 151.655 240.027 151.655H289.307C290.935 151.655 292.28 150.325 292.28 148.716V146.407C292.28 144.798 290.935 143.469 289.307 143.469H234.115C232.487 143.469 231.141 144.798 231.141 146.407V169.496C231.141 171.001 232.274 172.26 233.796 172.4C235.567 172.575 237.089 171.211 237.089 169.496H237.053Z" fill="url(#paint5_linear_1023_623)"/>
<path d="M300.99 147.072L289.272 158.651C288.812 159.106 288.033 158.791 288.033 158.162V135.912C288.033 135.282 288.776 134.968 289.236 135.387L300.955 146.057C301.238 146.337 301.273 146.792 300.955 147.072H300.99Z" fill="url(#paint6_linear_1023_623)"/>
<path d="M453.658 143.56H332.721C331.4 143.56 330.329 144.563 330.329 145.8V250.815C330.329 252.052 331.4 253.055 332.721 253.055H453.658C454.979 253.055 456.051 252.052 456.051 250.815V145.8C456.051 144.563 454.979 143.56 453.658 143.56Z" fill="#6068B9"/>
<path d="M448.333 199.583V218.894C448.333 220.993 446.599 222.707 444.475 222.707H380.68C378.556 222.707 376.822 224.421 376.822 226.52V229.529C376.822 231.628 378.556 233.342 380.68 233.342H452.192C454.316 233.342 456.051 231.628 456.051 229.529V199.618C456.051 197.694 454.564 196.049 452.617 195.839C450.351 195.595 448.369 197.344 448.369 199.618L448.333 199.583Z" fill="url(#paint7_linear_1023_623)"/>
<path d="M365.493 228.619L380.645 213.646C381.247 213.052 382.238 213.471 382.238 214.311V243.137C382.238 243.942 381.282 244.362 380.68 243.802L365.528 229.949C365.139 229.599 365.139 229.004 365.528 228.619H365.493Z" fill="url(#paint8_linear_1023_623)"/>
<path opacity="0.74" d="M607.467 153.754H438.669C433.429 153.754 429.182 157.951 429.182 163.129V200.037C429.182 205.215 433.429 209.413 438.669 209.413H607.467C612.707 209.413 616.955 205.215 616.955 200.037V163.129C616.955 157.951 612.707 153.754 607.467 153.754Z" fill="#1D0668" fill-opacity="0.5"/>
<path d="M607.156 146H438.358C433.118 146 428.87 150.198 428.87 155.376V192.284C428.87 197.462 433.118 201.659 438.358 201.659H607.156C612.396 201.659 616.644 197.462 616.644 192.284V155.376C616.644 150.198 612.396 146 607.156 146Z" fill="#313770"/>
<path d="M239.071 180.237H173.931C169.669 180.237 166.214 183.651 166.214 187.863V249.469C166.214 253.681 169.669 257.095 173.931 257.095H239.071C243.333 257.095 246.788 253.681 246.788 249.469V187.863C246.788 183.651 243.333 180.237 239.071 180.237Z" fill="#53C7B4"/>
<path opacity="0.74" d="M239.071 180.237H173.931C169.669 180.237 166.214 183.651 166.214 187.863V249.469C166.214 253.681 169.669 257.095 173.931 257.095H239.071C243.333 257.095 246.788 253.681 246.788 249.469V187.863C246.788 183.651 243.333 180.237 239.071 180.237Z" fill="#313770"/>
<path opacity="0.74" d="M179.277 185.554H244.452C248.7 185.554 252.169 188.983 252.169 193.181V254.821C252.169 259.019 248.7 262.448 244.452 262.448H179.277C175.029 262.448 171.559 259.019 171.559 254.821V193.181C171.559 188.983 175.029 185.554 179.277 185.554Z" fill="#1D0668" fill-opacity="0.5"/>
<path d="M196.741 201.063V208.569L186.899 214.31L180.636 210.777M192.715 206.361L186.899 209.452L181.084 205.478M181.084 205.478L177.057 208.569V208.128V197.53L186.899 191.348L195.846 196.647L191.82 199.296L186.899 196.647L181.084 199.738V205.478Z" stroke="white" stroke-width="1.5" stroke-linecap="round" stroke-linejoin="round"/>
<path d="M204.519 198.813H239.39" stroke="white" stroke-miterlimit="10" stroke-linecap="round"/>
<path d="M204.519 208.084H239.39" stroke="white" stroke-miterlimit="10" stroke-linecap="round"/>
<path d="M239.035 224.001H176.728C176.161 224.001 175.701 224.456 175.701 225.016V244.187C175.701 244.747 176.161 245.201 176.728 245.201H239.035C239.602 245.201 240.062 244.747 240.062 244.187V225.016C240.062 224.456 239.602 224.001 239.035 224.001Z" stroke="white" stroke-width="0.75" stroke-miterlimit="10" stroke-linecap="round"/>
<path d="M469.947 171.538V182L456.409 190L447.794 185.077M464.409 178.923L456.409 183.231L448.409 177.692M448.409 177.692L442.87 182V181.385V166.615L456.409 158L468.717 165.385L463.178 169.077L456.409 165.385L448.409 169.692V177.692Z" stroke="white" stroke-width="2.5" stroke-linecap="round" stroke-linejoin="round"/>
<path d="M486.307 181.2C484.894 181.2 483.614 180.893 482.467 180.28C481.334 179.653 480.441 178.793 479.787 177.7C479.147 176.607 478.827 175.373 478.827 174C478.827 172.627 479.154 171.393 479.807 170.3C480.461 169.207 481.354 168.353 482.487 167.74C483.634 167.113 484.914 166.8 486.327 166.8C487.474 166.8 488.521 167 489.467 167.4C490.414 167.8 491.214 168.38 491.867 169.14L490.187 170.72C489.174 169.627 487.927 169.08 486.447 169.08C485.487 169.08 484.627 169.293 483.867 169.72C483.107 170.133 482.514 170.713 482.087 171.46C481.661 172.207 481.447 173.053 481.447 174C481.447 174.947 481.661 175.793 482.087 176.54C482.514 177.287 483.107 177.873 483.867 178.3C484.627 178.713 485.487 178.92 486.447 178.92C487.927 178.92 489.174 178.367 490.187 177.26L491.867 178.86C491.214 179.62 490.407 180.2 489.447 180.6C488.501 181 487.454 181.2 486.307 181.2ZM500.606 181.2C499.179 181.2 497.892 180.893 496.746 180.28C495.599 179.653 494.699 178.793 494.046 177.7C493.392 176.593 493.066 175.36 493.066 174C493.066 172.64 493.392 171.413 494.046 170.32C494.699 169.213 495.599 168.353 496.746 167.74C497.892 167.113 499.179 166.8 500.606 166.8C502.032 166.8 503.319 167.113 504.466 167.74C505.612 168.353 506.512 169.207 507.166 170.3C507.819 171.393 508.146 172.627 508.146 174C508.146 175.373 507.819 176.607 507.166 177.7C506.512 178.793 505.612 179.653 504.466 180.28C503.319 180.893 502.032 181.2 500.606 181.2ZM500.606 178.92C501.539 178.92 502.379 178.713 503.126 178.3C503.872 177.873 504.459 177.287 504.886 176.54C505.312 175.78 505.526 174.933 505.526 174C505.526 173.067 505.312 172.227 504.886 171.48C504.459 170.72 503.872 170.133 503.126 169.72C502.379 169.293 501.539 169.08 500.606 169.08C499.672 169.08 498.832 169.293 498.086 169.72C497.339 170.133 496.752 170.72 496.326 171.48C495.899 172.227 495.686 173.067 495.686 174C495.686 174.933 495.899 175.78 496.326 176.54C496.752 177.287 497.339 177.873 498.086 178.3C498.832 178.713 499.672 178.92 500.606 178.92ZM523.342 167V181H521.202L513.482 171.52V181H510.902V167H513.042L520.762 176.48V167H523.342ZM531.433 181.2C530.353 181.2 529.306 181.047 528.293 180.74C527.293 180.433 526.5 180.027 525.913 179.52L526.813 177.5C527.386 177.953 528.086 178.327 528.913 178.62C529.753 178.9 530.593 179.04 531.433 179.04C532.473 179.04 533.246 178.873 533.753 178.54C534.273 178.207 534.533 177.767 534.533 177.22C534.533 176.82 534.386 176.493 534.093 176.24C533.813 175.973 533.453 175.767 533.013 175.62C532.573 175.473 531.973 175.307 531.213 175.12C530.146 174.867 529.28 174.613 528.613 174.36C527.96 174.107 527.393 173.713 526.913 173.18C526.446 172.633 526.213 171.9 526.213 170.98C526.213 170.207 526.42 169.507 526.833 168.88C527.26 168.24 527.893 167.733 528.733 167.36C529.586 166.987 530.626 166.8 531.853 166.8C532.706 166.8 533.546 166.907 534.373 167.12C535.2 167.333 535.913 167.64 536.513 168.04L535.693 170.06C535.08 169.7 534.44 169.427 533.773 169.24C533.106 169.053 532.46 168.96 531.833 168.96C530.806 168.96 530.04 169.133 529.533 169.48C529.04 169.827 528.793 170.287 528.793 170.86C528.793 171.26 528.933 171.587 529.213 171.84C529.506 172.093 529.873 172.293 530.313 172.44C530.753 172.587 531.353 172.753 532.113 172.94C533.153 173.18 534.006 173.433 534.673 173.7C535.34 173.953 535.906 174.347 536.373 174.88C536.853 175.413 537.093 176.133 537.093 177.04C537.093 177.813 536.88 178.513 536.453 179.14C536.04 179.767 535.406 180.267 534.553 180.64C533.7 181.013 532.66 181.2 531.433 181.2ZM546.211 181.2C544.784 181.2 543.498 180.893 542.351 180.28C541.204 179.653 540.304 178.793 539.651 177.7C538.998 176.593 538.671 175.36 538.671 174C538.671 172.64 538.998 171.413 539.651 170.32C540.304 169.213 541.204 168.353 542.351 167.74C543.498 167.113 544.784 166.8 546.211 166.8C547.638 166.8 548.924 167.113 550.071 167.74C551.218 168.353 552.118 169.207 552.771 170.3C553.424 171.393 553.751 172.627 553.751 174C553.751 175.373 553.424 176.607 552.771 177.7C552.118 178.793 551.218 179.653 550.071 180.28C548.924 180.893 547.638 181.2 546.211 181.2ZM546.211 178.92C547.144 178.92 547.984 178.713 548.731 178.3C549.478 177.873 550.064 177.287 550.491 176.54C550.918 175.78 551.131 174.933 551.131 174C551.131 173.067 550.918 172.227 550.491 171.48C550.064 170.72 549.478 170.133 548.731 169.72C547.984 169.293 547.144 169.08 546.211 169.08C545.278 169.08 544.438 169.293 543.691 169.72C542.944 170.133 542.358 170.72 541.931 171.48C541.504 172.227 541.291 173.067 541.291 174C541.291 174.933 541.504 175.78 541.931 176.54C542.358 177.287 542.944 177.873 543.691 178.3C544.438 178.713 545.278 178.92 546.211 178.92ZM565.667 181L562.807 176.9C562.687 176.913 562.507 176.92 562.267 176.92H559.107V181H556.507V167H562.267C563.48 167 564.534 167.2 565.427 167.6C566.334 168 567.027 168.573 567.507 169.32C567.987 170.067 568.227 170.953 568.227 171.98C568.227 173.033 567.967 173.94 567.447 174.7C566.94 175.46 566.207 176.027 565.247 176.4L568.467 181H565.667ZM565.607 171.98C565.607 171.087 565.314 170.4 564.727 169.92C564.14 169.44 563.28 169.2 562.147 169.2H559.107V174.78H562.147C563.28 174.78 564.14 174.54 564.727 174.06C565.314 173.567 565.607 172.873 565.607 171.98ZM573.781 169.2H569.141V167H581.021V169.2H576.381V181H573.781V169.2ZM582.972 167H585.572V181H582.972V167ZM598.439 177.76H591.439L590.059 181H587.379L593.679 167H596.239L602.559 181H599.839L598.439 177.76ZM597.579 175.72L594.939 169.6L592.319 175.72H597.579Z" fill="white"/>
<path d="M381.87 174.654V186.75L365.87 196L355.689 190.308M375.325 183.192L365.87 188.173L356.416 181.769M356.416 181.769L349.87 186.75V186.038V168.962L365.87 159L380.416 167.538L373.87 171.808L365.87 167.538L356.416 172.519V181.769Z" stroke="white" stroke-width="2.5" stroke-linecap="round" stroke-linejoin="round"/>
</g>
<path d="M219.501 388.052C219.501 389.354 219.286 390.937 218.893 392.766C218.464 394.596 217.856 396.531 217.069 398.501C216.283 400.471 215.353 402.441 214.244 404.411C213.136 406.381 211.884 408.14 210.454 409.723C209.024 411.306 207.486 412.573 205.806 413.523C204.125 414.508 202.337 414.965 200.406 414.965C199.977 414.965 199.369 414.965 198.654 414.86C197.939 414.789 197.224 414.613 196.509 414.367C195.794 414.086 195.186 413.699 194.65 413.171C194.149 412.643 193.863 411.94 193.863 411.06C193.863 410.497 194.006 409.794 194.328 409.02C194.65 408.246 195.222 407.366 196.08 406.346C196.974 405.396 197.939 404.235 198.94 402.898C199.977 401.561 200.907 400.189 201.729 398.712C202.552 397.234 203.267 395.827 203.839 394.42C204.411 393.012 204.697 391.746 204.697 390.655C204.697 389.248 204.375 388.122 203.696 387.278C203.017 386.434 201.872 386.012 200.263 386.012C198.154 386.012 195.758 386.68 193.112 388.052C190.466 389.424 187.677 391.253 184.781 393.646C181.884 396.003 178.916 398.782 175.913 401.948C172.909 405.115 170.013 408.492 167.188 412.116C164.399 415.704 161.753 419.468 159.25 423.373C156.747 427.278 154.602 431.113 152.742 434.913C150.883 438.712 149.452 442.371 148.38 445.889C147.307 449.407 146.806 452.573 146.806 455.423C146.806 458.941 147.772 461.791 149.703 463.937C151.634 466.083 154.78 467.138 159.214 467.138C161.288 467.138 164.363 466.364 168.44 464.781C172.516 463.198 175.913 461.65 178.666 460.067C181.384 458.484 184.137 456.76 186.926 454.825C189.715 452.925 192.361 451.06 194.864 449.301C197.367 447.542 199.656 445.924 201.729 444.517C203.803 443.11 205.484 442.089 206.807 441.491C207.057 441.315 207.343 441.21 207.701 441.21C208.452 441.21 208.952 441.808 209.203 442.969C209.489 444.165 209.596 445.502 209.596 447.015C209.596 447.824 209.489 448.844 209.274 450.04C209.06 451.236 208.345 452.608 207.165 454.156C206.628 454.79 205.627 455.845 204.125 457.358C202.659 458.871 200.8 460.559 198.583 462.424C196.366 464.288 193.827 466.258 190.967 468.299C188.106 470.339 185.031 472.204 181.705 473.893C178.38 475.581 174.089 477.27 168.869 478.888C163.648 480.542 159.071 481.351 155.174 481.351C150.597 481.351 146.699 480.823 143.445 479.733C140.191 478.642 137.545 477.129 135.471 475.194C133.398 473.259 131.896 470.937 130.93 468.264C129.965 465.59 129.5 462.635 129.5 459.433C129.5 455.458 130.108 451.201 131.359 446.663C132.575 442.125 134.291 437.481 136.473 432.802C138.654 428.088 141.264 423.409 144.303 418.729C147.343 414.05 150.632 409.547 154.28 405.255C157.891 400.963 161.753 396.988 165.829 393.294C169.906 389.635 174.089 386.434 178.38 383.725C182.671 381.016 186.962 378.87 191.288 377.322C195.615 375.774 199.87 375 204.054 375C206.128 375 208.094 375.246 209.954 375.704C211.813 376.161 213.458 376.9 214.852 377.92C216.247 378.94 217.355 380.277 218.178 381.966C219 383.654 219.394 385.695 219.394 388.087L219.501 388.052Z" fill="url(#paint9_linear_1023_623)"/>
<path d="M235.341 426.997C237.201 426.997 239.203 427.243 241.348 427.736C243.494 428.228 245.461 429.037 247.284 430.198C249.108 431.359 250.61 432.907 251.825 434.807C253.041 436.707 253.649 439.064 253.649 441.878C253.649 443.321 253.434 444.974 253.041 446.839C252.648 448.703 252.04 450.638 251.253 452.679C251.754 453.242 252.326 453.664 252.97 453.91C253.613 454.156 254.293 454.262 255.043 454.262C256.08 454.262 257.225 453.98 258.476 453.382C259.728 452.784 261.015 452.046 262.338 451.131C263.661 450.216 264.984 449.161 266.307 448C267.63 446.839 268.881 445.678 270.061 444.517C271.241 443.356 272.314 442.265 273.28 441.21C274.245 440.154 275.032 439.275 275.675 438.571C276.033 438.22 276.426 438.079 276.927 438.079C277.606 438.079 278.214 438.431 278.786 439.134C279.323 439.838 279.609 440.823 279.609 442.089C279.609 443.356 279.215 444.798 278.464 446.452C277.713 448.105 276.283 449.829 274.209 451.623C273.029 452.89 271.671 454.332 270.133 455.986C268.595 457.639 266.986 459.187 265.27 460.63C263.554 462.072 261.766 463.303 259.871 464.324C258.011 465.344 256.116 465.836 254.257 465.836C252.97 465.836 251.718 465.66 250.538 465.273C249.322 464.886 248.107 464.253 246.891 463.374C245.103 466.083 243.101 468.545 240.848 470.797C238.595 473.013 236.056 474.913 233.267 476.531C230.478 478.114 227.475 479.381 224.257 480.26C221.038 481.14 217.606 481.597 213.958 481.597C212.564 481.597 210.991 481.316 209.167 480.788C207.343 480.26 205.627 479.381 203.946 478.15C202.302 476.918 200.907 475.3 199.763 473.33C198.619 471.36 198.047 468.932 198.047 466.083C198.047 464.148 198.368 461.826 199.012 459.117C199.656 456.408 200.621 453.629 201.908 450.744C203.196 447.859 204.876 445.009 206.843 442.195C208.845 439.381 211.205 436.812 213.958 434.561C216.712 432.309 219.858 430.48 223.398 429.108C226.938 427.736 230.872 427.032 235.198 427.032L235.341 426.997ZM231.515 439.768C229.191 439.768 226.974 440.33 224.829 441.491C222.683 442.617 220.788 444.13 219.143 445.994C217.498 447.859 216.175 449.97 215.21 452.292C214.209 454.649 213.744 457.041 213.744 459.504C213.744 460.419 213.815 461.439 213.958 462.529C214.101 463.62 214.423 464.64 214.888 465.59C215.353 466.54 216.032 467.314 216.926 467.947C217.82 468.58 219 468.897 220.466 468.897C222.719 468.897 224.936 468.299 227.081 467.103C229.227 465.907 231.122 464.359 232.802 462.459C234.483 460.559 235.806 458.378 236.772 455.951C237.737 453.523 238.238 451.096 238.238 448.598C238.238 447.613 238.166 446.628 238.059 445.572C237.951 444.552 237.63 443.567 237.165 442.687C236.7 441.808 236.021 441.104 235.127 440.541C234.233 439.979 233.017 439.697 231.515 439.697V439.768Z" fill="url(#paint10_linear_1023_623)"/>
<path d="M289.227 477.305C289.227 474.983 289.764 472.626 290.801 470.199C291.838 467.771 293.196 465.273 294.805 462.705C296.414 460.137 298.202 457.534 300.133 454.895C302.064 452.257 303.888 449.548 305.604 446.804C306.105 446.03 306.498 445.291 306.784 444.587C307.07 443.884 307.213 443.18 307.213 442.441C307.213 441.667 306.999 441.034 306.534 440.506C306.105 440.014 305.461 439.732 304.603 439.732C302.6 439.732 300.634 440.154 298.774 440.999C296.915 441.843 295.127 442.969 293.375 444.341C291.659 445.713 290.014 447.296 288.476 449.09C286.939 450.884 285.473 452.749 284.114 454.649C282.755 456.549 281.504 458.448 280.324 460.348C279.144 462.248 278.071 463.972 277.07 465.52C276.176 467.103 275.389 468.862 274.638 470.762C273.887 472.661 273.101 474.385 272.243 476.003C271.384 477.587 270.419 478.959 269.346 480.049C268.274 481.14 266.915 481.668 265.27 481.668C263.482 481.668 262.088 481.105 261.051 480.014C260.014 478.888 259.513 477.587 259.513 476.039C259.513 475.159 259.835 473.822 260.478 471.958C261.122 470.128 261.945 467.982 262.946 465.52C263.947 463.057 265.091 460.489 266.378 457.71C267.666 454.965 268.917 452.221 270.169 449.512C271.42 446.804 272.6 444.235 273.709 441.843C274.817 439.451 275.747 437.41 276.462 435.722C277.356 433.646 278.5 432.098 279.966 431.078C281.432 430.058 282.862 429.565 284.293 429.565C285.509 429.565 286.617 430.022 287.582 430.902C288.548 431.781 289.013 433.083 289.013 434.772C289.013 436.038 288.727 437.41 288.119 438.888C289.442 437.692 290.872 436.39 292.41 434.983C293.947 433.576 295.592 432.274 297.38 431.078C299.168 429.882 301.17 428.897 303.387 428.123C305.604 427.349 308.071 426.962 310.825 426.962C312.183 426.962 313.506 427.138 314.722 427.489C315.938 427.841 317.046 428.369 318.012 429.073C318.977 429.811 319.764 430.726 320.372 431.887C320.98 433.048 321.337 434.455 321.444 436.109C322.589 434.983 323.804 433.892 325.127 432.802C326.45 431.711 327.881 430.726 329.454 429.847C330.992 428.967 332.672 428.263 334.496 427.736C336.319 427.208 338.322 426.927 340.539 426.927C342.148 426.927 343.721 427.102 345.187 427.454C346.653 427.806 347.976 428.369 349.12 429.143C350.265 429.952 351.194 430.972 351.838 432.239C352.517 433.505 352.839 435.053 352.839 436.883C352.839 439.803 352.16 442.547 350.801 445.15C349.442 447.753 347.869 450.146 346.045 452.327C345.438 453.066 344.651 453.98 343.685 455.071C342.72 456.197 341.755 457.393 340.825 458.624C339.895 459.891 339.073 461.192 338.393 462.494C337.714 463.831 337.356 465.062 337.356 466.223C337.356 467.279 337.678 467.982 338.358 468.264C339.037 468.545 339.895 468.686 340.968 468.686C343.042 468.686 345.259 468.088 347.69 466.856C350.086 465.66 352.446 464.183 354.734 462.459C357.023 460.735 359.168 458.941 361.135 457.076C363.137 455.212 364.711 453.664 365.891 452.397C366.177 452.045 366.534 451.799 366.928 451.658C367.321 451.518 367.714 451.447 368.108 451.447C369.001 451.447 369.788 451.834 370.503 452.608C371.218 453.382 371.576 454.403 371.576 455.669C371.576 456.654 371.29 457.71 370.682 458.87C370.074 460.031 369.073 461.157 367.643 462.283C364.997 464.781 362.279 467.208 359.49 469.495C356.701 471.782 353.912 473.822 351.087 475.581C348.262 477.34 345.438 478.748 342.613 479.838C339.788 480.894 336.963 481.456 334.174 481.456C330.527 481.456 327.595 480.612 325.342 478.923C323.089 477.235 321.981 474.526 321.981 470.867C321.981 468.44 322.446 466.188 323.375 464.042C324.305 461.931 325.449 459.856 326.844 457.921C328.203 455.951 329.669 454.051 331.206 452.221C332.744 450.392 334.067 448.563 335.175 446.698C335.676 445.924 336.069 445.185 336.355 444.482C336.641 443.778 336.784 443.074 336.784 442.336C336.784 441.562 336.57 440.928 336.105 440.401C335.676 439.908 335.032 439.627 334.174 439.627C332.172 439.627 330.205 440.049 328.346 440.893C326.486 441.738 324.663 442.863 322.946 444.235C321.23 445.607 319.585 447.191 318.048 448.985C316.51 450.779 315.044 452.644 313.685 454.543C312.326 456.443 311.075 458.343 309.895 460.243C308.715 462.142 307.642 463.866 306.641 465.414C305.747 466.997 304.96 468.756 304.21 470.656C303.459 472.556 302.672 474.28 301.814 475.898C300.956 477.481 299.99 478.853 298.882 479.944C297.809 481.034 296.45 481.562 294.841 481.562C294.269 481.562 293.625 481.456 292.91 481.245C292.231 481.034 291.587 480.718 291.015 480.331C290.443 479.944 289.978 479.486 289.621 478.959C289.263 478.431 289.048 477.833 288.977 477.2L289.227 477.305Z" fill="url(#paint11_linear_1023_623)"/>
<path d="M372.327 433.294C373.149 431.957 374.115 430.972 375.223 430.374C376.296 429.811 377.404 429.495 378.549 429.495C380.408 429.495 382.017 430.093 383.376 431.289C384.735 432.485 385.414 433.998 385.414 435.827C385.378 436.249 385.307 436.707 385.235 437.129C385.164 437.551 384.985 438.008 384.77 438.431C384.091 439.697 383.519 440.753 383.09 441.632C382.661 442.512 382.232 443.321 381.874 444.059C381.516 444.798 381.159 445.537 380.801 446.276C380.444 447.015 380.05 447.859 379.55 448.879C378.942 450.075 378.298 451.412 377.547 452.819C376.796 454.262 376.117 455.704 375.438 457.217C374.758 458.73 374.222 460.207 373.757 461.65C373.292 463.092 373.042 464.429 373.042 465.66C373.042 466.962 373.364 467.842 374.043 468.229C374.723 468.651 375.652 468.827 376.868 468.827C378.227 468.827 379.693 468.545 381.195 467.947C382.696 467.349 384.198 466.61 385.736 465.696C387.273 464.781 388.775 463.725 390.241 462.529C391.707 461.333 393.102 460.137 394.425 458.941C395.712 457.745 396.928 456.584 398.036 455.458C399.145 454.332 400.074 453.347 400.789 452.468C401.755 451.553 402.756 451.096 403.757 451.096C404.651 451.096 405.366 451.483 405.939 452.257C406.511 453.031 406.797 454.016 406.797 455.247C406.797 456.373 406.511 457.534 405.939 458.8C405.366 460.067 404.437 461.228 403.185 462.353C400.682 464.851 398.108 467.279 395.497 469.565C392.887 471.852 390.205 473.893 387.488 475.652C384.77 477.411 382.017 478.818 379.264 479.909C376.51 480.964 373.721 481.527 370.932 481.527C366.963 481.527 363.817 480.507 361.528 478.501C359.24 476.496 358.095 473.365 358.095 469.108C358.095 466.892 358.417 464.711 359.061 462.564C359.705 460.418 360.455 458.378 361.349 456.338C362.243 454.332 363.173 452.397 364.138 450.533C365.104 448.668 365.962 446.874 366.641 445.185C366.892 444.552 367.321 443.602 367.929 442.265C368.537 440.964 369.18 439.627 369.895 438.29C370.682 436.707 371.504 434.983 372.398 433.189L372.327 433.294ZM380.444 416.97C380.444 415.845 380.658 414.719 381.087 413.523C381.516 412.327 382.124 411.271 382.982 410.286C383.805 409.336 384.878 408.527 386.129 407.894C387.381 407.261 388.882 406.944 390.599 406.944C393.459 406.944 395.426 407.507 396.57 408.562C397.714 409.653 398.286 411.025 398.286 412.678C398.286 413.593 398.108 414.613 397.714 415.739C397.357 416.865 396.785 417.885 396.07 418.835C395.319 419.785 394.353 420.559 393.173 421.192C391.993 421.825 390.599 422.142 388.954 422.142C385.915 422.142 383.769 421.685 382.518 420.735C381.302 419.785 380.587 418.554 380.444 417.006V416.97Z" fill="url(#paint12_linear_1023_623)"/>
<path d="M409.872 435.687C410.837 433.611 412.089 432.063 413.555 431.043C415.021 430.022 416.487 429.53 417.917 429.53C419.097 429.53 420.17 429.952 421.1 430.796C422.029 431.641 422.494 432.907 422.494 434.526C422.494 435.159 422.423 435.827 422.28 436.566C422.137 437.305 421.851 438.079 421.457 438.888C422.53 437.551 424.103 436.144 426.106 434.701C428.108 433.259 430.361 431.993 432.792 430.867C435.224 429.741 437.727 428.791 440.301 428.088C442.876 427.349 445.343 426.997 447.631 426.997C450.242 426.997 452.423 427.63 454.175 428.862C455.927 430.093 456.785 432.204 456.785 435.159C456.785 436.883 456.499 438.712 455.963 440.612C455.426 442.512 454.711 444.376 453.853 446.276C452.995 448.176 452.03 450.005 450.993 451.834C449.92 453.664 448.883 455.353 447.846 456.936C446.809 458.519 445.879 459.996 445.021 461.333C444.163 462.67 443.484 463.761 442.983 464.64C442.339 465.414 442.018 466.294 442.018 467.314C442.018 467.701 442.125 468.053 442.375 468.334C442.625 468.616 443.019 468.756 443.555 468.756C443.913 468.756 444.306 468.756 444.735 468.651C445.164 468.58 445.701 468.334 446.344 467.877C448.99 466.892 451.708 465.696 454.497 464.253C457.286 462.811 459.932 461.263 462.506 459.645C465.081 458.026 467.405 456.408 469.551 454.79C471.696 453.171 473.484 451.694 474.914 450.392C475.307 450.04 475.701 449.794 476.094 449.653C476.487 449.513 476.845 449.442 477.203 449.442C478.025 449.442 478.704 449.759 479.169 450.392C479.634 451.025 479.884 451.834 479.884 452.784C479.884 454.297 479.42 455.951 478.454 457.78C477.489 459.609 475.987 461.333 473.913 462.916C471.124 464.886 468.549 466.716 466.189 468.369C463.865 470.023 461.469 471.571 459.038 472.978C456.606 474.385 453.996 475.722 451.207 476.953C448.418 478.185 445.164 479.346 441.445 480.401C440.158 480.788 439.014 481.07 437.941 481.281C436.869 481.457 435.903 481.562 435.009 481.562C432.399 481.562 430.504 480.858 429.288 479.416C428.072 477.974 427.464 476.004 427.464 473.435C427.464 473.084 427.464 472.767 427.5 472.45C427.5 472.134 427.572 471.782 427.607 471.395C427.715 469.882 428.108 468.264 428.823 466.47C429.538 464.675 430.396 462.846 431.398 460.946C432.399 459.046 433.472 457.182 434.616 455.317C435.76 453.453 436.797 451.694 437.762 450.005C438.728 448.352 439.515 446.839 440.158 445.537C440.802 444.235 441.124 443.18 441.124 442.336C441.124 441.597 440.909 440.999 440.48 440.471C440.051 439.979 439.443 439.697 438.585 439.697C435.438 439.697 432.435 440.612 429.61 442.476C426.785 444.306 424.139 446.593 421.672 449.266C419.204 451.94 416.952 454.79 414.878 457.78C412.804 460.77 410.98 463.479 409.407 465.836C408.406 467.455 407.512 469.143 406.725 470.973C405.903 472.802 405.08 474.491 404.186 476.074C403.293 477.657 402.291 478.959 401.183 479.979C400.074 481.034 398.68 481.527 396.999 481.527C395.319 481.527 393.924 480.999 392.959 479.909C391.958 478.853 391.493 477.551 391.493 476.004C391.493 475.194 391.85 473.858 392.53 472.028C393.209 470.199 394.103 468.053 395.176 465.625C396.248 463.198 397.464 460.594 398.823 457.815C400.182 455.036 401.54 452.257 402.863 449.548C404.222 446.804 405.509 444.235 406.725 441.808C407.941 439.381 408.978 437.34 409.765 435.651L409.872 435.687Z" fill="url(#paint13_linear_1023_623)"/>
<path d="M502.519 426.997C504.664 426.997 506.559 427.278 508.204 427.806C509.813 428.334 511.208 428.932 512.352 429.53C513.639 430.304 514.748 431.148 515.749 432.063C516.428 431.641 517.179 431.219 517.966 430.832C518.645 430.48 519.432 430.198 520.254 429.917C521.077 429.671 521.935 429.53 522.757 429.53C524.903 429.53 526.583 429.952 527.763 430.832C528.943 431.711 529.551 432.731 529.551 433.963C529.551 434.596 529.372 435.229 529.015 435.862L511.744 468.018L513.138 466.786C518.931 463.444 523.723 460.806 527.441 458.906C531.196 457.006 534.164 455.564 536.381 454.649C538.598 453.734 540.171 453.171 541.136 452.96C542.102 452.749 542.71 452.644 542.96 452.644C544.104 452.644 544.962 453.066 545.57 453.91C546.178 454.754 546.5 455.81 546.5 457.076C546.5 458.484 546.107 459.891 545.284 461.368C544.462 462.811 543.246 463.866 541.565 464.499C539.348 465.625 536.774 466.821 533.806 468.088C530.838 469.39 527.763 470.797 524.581 472.345C521.363 473.893 518.18 475.617 514.962 477.551C511.744 479.451 508.74 481.562 505.916 483.919L491.613 509.39C490.433 512.169 489.36 514.386 488.394 516.145C487.429 517.904 486.499 519.276 485.57 520.296C484.64 521.316 483.675 522.02 482.673 522.407C481.672 522.794 480.564 522.97 479.276 522.97C477.346 522.97 475.844 522.336 474.735 521C473.627 519.698 473.09 518.115 473.09 516.285C473.09 514.35 473.555 512.099 474.485 509.531C475.415 506.962 476.738 504.183 478.418 501.228C480.099 498.238 482.173 495.142 484.568 491.87C486.964 488.598 489.646 485.291 492.614 481.879L501.768 470.41C499.908 472.098 498.049 473.541 496.225 474.772C494.402 475.968 492.65 476.953 491.005 477.727C489.324 478.466 487.751 479.029 486.321 479.346C484.89 479.662 483.603 479.838 482.53 479.838C480.564 479.838 478.74 479.381 477.059 478.501C475.379 477.622 473.949 476.355 472.733 474.772C471.517 473.154 470.587 471.289 469.908 469.108C469.229 466.927 468.871 464.57 468.871 462.002C468.871 456.689 469.908 451.87 472.018 447.542C474.092 443.25 476.773 439.556 480.063 436.531C483.317 433.505 486.964 431.183 490.898 429.53C494.867 427.876 498.728 427.067 502.519 427.067V426.997ZM499.73 439.768C497.405 439.768 495.188 440.33 493.007 441.491C490.826 442.617 488.931 444.13 487.25 445.994C485.57 447.859 484.247 450.005 483.281 452.433C482.28 454.86 481.815 457.358 481.815 459.891C481.815 460.665 481.887 461.509 481.994 462.389C482.101 463.268 482.387 464.112 482.816 464.886C483.245 465.66 483.853 466.294 484.676 466.821C485.498 467.314 486.607 467.595 488.037 467.595C489.074 467.595 490.29 467.138 491.684 466.258C493.079 465.379 494.545 464.218 496.047 462.846C497.548 461.474 499.014 459.961 500.445 458.273C501.875 456.619 503.162 454.966 504.306 453.382C505.451 451.799 506.38 450.357 507.06 449.055C507.739 447.753 508.097 446.804 508.097 446.17C508.097 445.115 507.811 444.165 507.203 443.391C506.595 442.582 505.88 441.914 505.022 441.386C504.163 440.858 503.234 440.471 502.304 440.19C501.339 439.908 500.48 439.803 499.765 439.803L499.73 439.768Z" fill="url(#paint14_linear_1023_623)"/>
<path d="M239.99 510.445C235.413 508.018 231.301 506.822 227.618 506.822C223.935 506.822 220.825 508.123 218.25 510.691C215.64 513.26 214.353 516.391 214.353 520.014C214.353 522.582 215.139 525.327 216.677 528.247C218.214 531.167 221.683 535.846 227.118 542.284C232.517 548.722 236.665 554.28 239.526 559.03C242.386 563.744 243.816 569.162 243.816 575.283C243.816 582.917 241.492 589.109 236.808 593.858C232.16 598.608 226.045 601 218.536 601C214.388 601 209.311 599.804 203.304 597.376V585.063C203.304 585.063 203.625 585.204 203.804 585.309C204.627 585.908 206.343 586.787 208.953 588.018C211.563 589.215 214.138 589.813 216.641 589.813C220.717 589.813 224.114 588.476 226.76 585.802C229.406 583.128 230.729 579.681 230.729 575.494C230.729 572.609 230.05 569.9 228.727 567.438C227.368 564.975 224.937 561.598 221.397 557.376L211.993 546.013C208.345 541.615 205.664 537.569 203.911 533.911C202.159 530.252 201.301 525.925 201.301 520.859C201.301 513.4 203.518 507.314 207.916 502.67C212.35 497.991 218.071 495.669 225.08 495.669C229.978 495.669 234.949 496.865 239.955 499.293V510.48L239.99 510.445Z" fill="url(#paint15_linear_1023_623)"/>
<path d="M259.299 548.229C259.299 525.96 261.516 511.571 265.95 505.027C270.384 498.484 277.714 495.212 287.905 495.212C299.562 495.212 307.321 498.871 311.183 506.188C315.045 513.506 316.94 526.699 316.94 545.731C316.94 562.794 316.082 574.615 314.365 581.193C312.649 587.807 309.681 592.627 305.462 595.758C301.242 598.854 295.485 600.437 288.227 600.437C280.968 600.437 275.032 598.995 271.063 596.145C267.094 593.26 264.126 588.616 262.196 582.178C260.265 575.74 259.299 564.447 259.299 548.229ZM302.244 549.038C302.244 529.583 301.099 517.552 298.739 512.978C296.415 508.405 292.947 506.118 288.262 506.118C282.792 506.118 279.037 508.862 277.035 514.35C274.997 519.838 273.995 529.091 273.995 542.143V547.772C273.995 562.301 274.818 572.891 276.463 579.575C278.107 586.259 282.041 589.601 288.262 589.601C292.089 589.601 295.378 587.737 298.096 583.973C300.813 580.208 302.208 569.83 302.208 552.838V549.073L302.244 549.038Z" fill="url(#paint16_linear_1023_623)"/>
<path d="M336.034 548.229C336.034 525.96 338.251 511.571 342.721 505.027C347.155 498.484 354.485 495.212 364.676 495.212C376.332 495.212 384.092 498.871 387.954 506.188C391.78 513.506 393.71 526.699 393.71 545.731C393.71 562.794 392.852 574.615 391.136 581.193C389.42 587.807 386.452 592.627 382.232 595.758C378.013 598.854 372.256 600.437 364.997 600.437C357.739 600.437 351.803 598.995 347.834 596.145C343.865 593.26 340.897 588.616 338.966 582.178C337.035 575.74 336.07 564.447 336.07 548.229H336.034ZM378.979 549.038C378.979 529.583 377.799 517.552 375.474 512.978C373.15 508.405 369.646 506.118 364.997 506.118C359.527 506.118 355.772 508.862 353.77 514.35C351.732 519.838 350.73 529.091 350.73 542.143V547.772C350.73 562.301 351.553 572.891 353.198 579.575C354.842 586.259 358.776 589.601 364.997 589.601C368.824 589.601 372.113 587.737 374.831 583.973C377.548 580.208 378.943 569.83 378.943 552.838V549.073L378.979 549.038Z" fill="url(#paint17_linear_1023_623)"/>
<path d="M462.865 599.769H451.816L425.212 529.372H424.891V599.769H412.304V497.217H423.496L450.171 567.578L450.493 567.649V497.217H462.865V599.769Z" fill="url(#paint18_linear_1023_623)"/>
<defs>
<linearGradient id="paint0_linear_1023_623" x1="358.428" y1="154.941" x2="558.5" y2="154.941" gradientUnits="userSpaceOnUse">
<stop stop-color="#1D2CDF"/>
<stop offset="1" stop-color="#B731FF"/>
</linearGradient>
<linearGradient id="paint1_linear_1023_623" x1="300.919" y1="172.243" x2="85.9921" y2="172.243" gradientUnits="userSpaceOnUse">
<stop stop-color="#B731FF"/>
<stop offset="1" stop-color="#1D2CDF"/>
</linearGradient>
<linearGradient id="paint2_linear_1023_623" x1="542.115" y1="243.767" x2="445.325" y2="243.767" gradientUnits="userSpaceOnUse">
<stop stop-color="#B731FF"/>
<stop offset="1" stop-color="#1D2CDF"/>
</linearGradient>
<linearGradient id="paint3_linear_1023_623" x1="312.169" y1="249.469" x2="377.54" y2="144.062" gradientUnits="userSpaceOnUse">
<stop stop-color="#EAF4F8"/>
<stop offset="0.44" stop-color="#C9E3EC"/>
<stop offset="1" stop-color="#92C1CF"/>
</linearGradient>
<linearGradient id="paint4_linear_1023_623" x1="302.322" y1="333.705" x2="315.692" y2="270.798" gradientUnits="userSpaceOnUse">
<stop stop-color="#EAF4F8"/>
<stop offset="0.44" stop-color="#C9E3EC"/>
<stop offset="1" stop-color="#92C1CF"/>
</linearGradient>
<linearGradient id="paint5_linear_1023_623" x1="274.84" y1="136.521" x2="230.091" y2="164.689" gradientUnits="userSpaceOnUse">
<stop stop-color="#B731FF"/>
<stop offset="1" stop-color="#1D2CDF"/>
</linearGradient>
<linearGradient id="paint6_linear_1023_623" x1="297.43" y1="129.515" x2="284.352" y2="131.68" gradientUnits="userSpaceOnUse">
<stop stop-color="#B731FF"/>
<stop offset="1" stop-color="#1D2CDF"/>
</linearGradient>
<linearGradient id="paint7_linear_1023_623" x1="433.45" y1="186.81" x2="375.448" y2="223.307" gradientUnits="userSpaceOnUse">
<stop stop-color="#B731FF"/>
<stop offset="1" stop-color="#1D2CDF"/>
</linearGradient>
<linearGradient id="paint8_linear_1023_623" x1="377.388" y1="206.002" x2="360.475" y2="208.794" gradientUnits="userSpaceOnUse">
<stop stop-color="#B731FF"/>
<stop offset="1" stop-color="#1D2CDF"/>
</linearGradient>
<linearGradient id="paint9_linear_1023_623" x1="131.638" y1="428.175" x2="219.501" y2="428.175" gradientUnits="userSpaceOnUse">
<stop stop-color="#1D2CDF"/>
<stop offset="1" stop-color="#B731FF"/>
</linearGradient>
<linearGradient id="paint10_linear_1023_623" x1="199.984" y1="454.297" x2="279.609" y2="454.297" gradientUnits="userSpaceOnUse">
<stop stop-color="#1D2CDF"/>
<stop offset="1" stop-color="#B731FF"/>
</linearGradient>
<linearGradient id="paint11_linear_1023_623" x1="262.175" y1="454.297" x2="371.576" y2="454.297" gradientUnits="userSpaceOnUse">
<stop stop-color="#1D2CDF"/>
<stop offset="1" stop-color="#B731FF"/>
</linearGradient>
<linearGradient id="paint12_linear_1023_623" x1="359.252" y1="444.235" x2="406.797" y2="444.235" gradientUnits="userSpaceOnUse">
<stop stop-color="#1D2CDF"/>
<stop offset="1" stop-color="#B731FF"/>
</linearGradient>
<linearGradient id="paint13_linear_1023_623" x1="393.592" y1="454.279" x2="479.884" y2="454.279" gradientUnits="userSpaceOnUse">
<stop stop-color="#1D2CDF"/>
<stop offset="1" stop-color="#B731FF"/>
</linearGradient>
<linearGradient id="paint14_linear_1023_623" x1="470.715" y1="474.983" x2="546.5" y2="474.983" gradientUnits="userSpaceOnUse">
<stop stop-color="#1D2CDF"/>
<stop offset="1" stop-color="#B731FF"/>
</linearGradient>
<linearGradient id="paint15_linear_1023_623" x1="202.311" y1="548.335" x2="243.816" y2="548.335" gradientUnits="userSpaceOnUse">
<stop stop-color="#1D2CDF"/>
<stop offset="1" stop-color="#B731FF"/>
</linearGradient>
<linearGradient id="paint16_linear_1023_623" x1="260.668" y1="547.824" x2="316.94" y2="547.824" gradientUnits="userSpaceOnUse">
<stop stop-color="#1D2CDF"/>
<stop offset="1" stop-color="#B731FF"/>
</linearGradient>
<linearGradient id="paint17_linear_1023_623" x1="337.404" y1="547.824" x2="393.71" y2="547.824" gradientUnits="userSpaceOnUse">
<stop stop-color="#1D2CDF"/>
<stop offset="1" stop-color="#B731FF"/>
</linearGradient>
<linearGradient id="paint18_linear_1023_623" x1="413.505" y1="548.493" x2="462.865" y2="548.493" gradientUnits="userSpaceOnUse">
<stop stop-color="#1D2CDF"/>
<stop offset="1" stop-color="#B731FF"/>
</linearGradient>
<clipPath id="clip0_1023_623">
<rect width="674.626" height="373.767" fill="white"/>
</clipPath>
</defs>
</svg>
