<svg width="182" height="31" viewBox="0 0 182 31" fill="none" xmlns="http://www.w3.org/2000/svg">
<path d="M25.5385 13.2692V22.75L13.2692 30L5.46154 25.5385M20.5192 19.9615L13.2692 23.8654L6.01923 18.8462M6.01923 18.8462L1 22.75V22.1923V8.80769L13.2692 1L24.4231 7.69231L19.4038 11.0385L13.2692 7.69231L6.01923 11.5962V18.8462Z" stroke="white" stroke-width="2" stroke-linecap="round" stroke-linejoin="round"/>
<path d="M43.5706 24.192C41.8906 24.192 40.3706 23.824 39.0106 23.088C37.6666 22.336 36.6106 21.312 35.8426 20.016C35.0746 18.704 34.6906 17.232 34.6906 15.6C34.6906 13.968 35.0746 12.504 35.8426 11.208C36.6106 9.896 37.6746 8.872 39.0346 8.136C40.3946 7.384 41.9146 7.008 43.5946 7.008C44.9066 7.008 46.1066 7.232 47.1946 7.68C48.2826 8.112 49.2106 8.76 49.9786 9.624L48.4186 11.136C47.1546 9.808 45.5786 9.144 43.6906 9.144C42.4426 9.144 41.3146 9.424 40.3066 9.984C39.2986 10.544 38.5066 11.32 37.9306 12.312C37.3706 13.288 37.0906 14.384 37.0906 15.6C37.0906 16.816 37.3706 17.92 37.9306 18.912C38.5066 19.888 39.2986 20.656 40.3066 21.216C41.3146 21.776 42.4426 22.056 43.6906 22.056C45.5626 22.056 47.1386 21.384 48.4186 20.04L49.9786 21.552C49.2106 22.416 48.2746 23.072 47.1706 23.52C46.0826 23.968 44.8826 24.192 43.5706 24.192ZM60.6348 24.192C58.9388 24.192 57.4108 23.824 56.0508 23.088C54.6908 22.336 53.6188 21.304 52.8348 19.992C52.0668 18.68 51.6828 17.216 51.6828 15.6C51.6828 13.984 52.0668 12.52 52.8348 11.208C53.6188 9.896 54.6908 8.872 56.0508 8.136C57.4108 7.384 58.9388 7.008 60.6348 7.008C62.3148 7.008 63.8348 7.384 65.1948 8.136C66.5548 8.872 67.6188 9.896 68.3868 11.208C69.1548 12.504 69.5388 13.968 69.5388 15.6C69.5388 17.232 69.1548 18.704 68.3868 20.016C67.6188 21.312 66.5548 22.336 65.1948 23.088C63.8348 23.824 62.3148 24.192 60.6348 24.192ZM60.6348 22.056C61.8668 22.056 62.9708 21.776 63.9468 21.216C64.9388 20.656 65.7148 19.888 66.2748 18.912C66.8508 17.92 67.1388 16.816 67.1388 15.6C67.1388 14.384 66.8508 13.288 66.2748 12.312C65.7148 11.32 64.9388 10.544 63.9468 9.984C62.9708 9.424 61.8668 9.144 60.6348 9.144C59.4028 9.144 58.2828 9.424 57.2748 9.984C56.2828 10.544 55.4988 11.32 54.9228 12.312C54.3628 13.288 54.0828 14.384 54.0828 15.6C54.0828 16.816 54.3628 17.92 54.9228 18.912C55.4988 19.888 56.2828 20.656 57.2748 21.216C58.2828 21.776 59.4028 22.056 60.6348 22.056ZM87.655 7.2V24H85.687L75.607 11.472V24H73.207V7.2H75.175L85.255 19.728V7.2H87.655ZM97.5796 24.192C96.3156 24.192 95.0916 24 93.9076 23.616C92.7396 23.216 91.8196 22.704 91.1476 22.08L92.0356 20.208C92.6756 20.784 93.4916 21.256 94.4836 21.624C95.4916 21.976 96.5236 22.152 97.5796 22.152C98.9716 22.152 100.012 21.92 100.7 21.456C101.388 20.976 101.732 20.344 101.732 19.56C101.732 18.984 101.54 18.52 101.156 18.168C100.788 17.8 100.324 17.52 99.7636 17.328C99.2196 17.136 98.4436 16.92 97.4356 16.68C96.1716 16.376 95.1476 16.072 94.3636 15.768C93.5956 15.464 92.9316 15 92.3716 14.376C91.8276 13.736 91.5556 12.88 91.5556 11.808C91.5556 10.912 91.7876 10.104 92.2516 9.384C92.7316 8.664 93.4516 8.088 94.4116 7.656C95.3716 7.224 96.5636 7.008 97.9876 7.008C98.9796 7.008 99.9556 7.136 100.916 7.392C101.876 7.648 102.7 8.016 103.388 8.496L102.596 10.416C101.892 9.968 101.14 9.632 100.34 9.408C99.5396 9.168 98.7556 9.048 97.9876 9.048C96.6276 9.048 95.6036 9.296 94.9156 9.792C94.2436 10.288 93.9076 10.928 93.9076 11.712C93.9076 12.288 94.0996 12.76 94.4836 13.128C94.8676 13.48 95.3396 13.76 95.8996 13.968C96.4756 14.16 97.2516 14.368 98.2276 14.592C99.4916 14.896 100.508 15.2 101.276 15.504C102.044 15.808 102.7 16.272 103.244 16.896C103.804 17.52 104.084 18.36 104.084 19.416C104.084 20.296 103.844 21.104 103.364 21.84C102.884 22.56 102.156 23.136 101.18 23.568C100.204 23.984 99.0036 24.192 97.5796 24.192ZM115.174 24.192C113.478 24.192 111.95 23.824 110.59 23.088C109.23 22.336 108.158 21.304 107.374 19.992C106.606 18.68 106.222 17.216 106.222 15.6C106.222 13.984 106.606 12.52 107.374 11.208C108.158 9.896 109.23 8.872 110.59 8.136C111.95 7.384 113.478 7.008 115.174 7.008C116.854 7.008 118.374 7.384 119.734 8.136C121.094 8.872 122.158 9.896 122.926 11.208C123.694 12.504 124.078 13.968 124.078 15.6C124.078 17.232 123.694 18.704 122.926 20.016C122.158 21.312 121.094 22.336 119.734 23.088C118.374 23.824 116.854 24.192 115.174 24.192ZM115.174 22.056C116.406 22.056 117.51 21.776 118.486 21.216C119.478 20.656 120.254 19.888 120.814 18.912C121.39 17.92 121.678 16.816 121.678 15.6C121.678 14.384 121.39 13.288 120.814 12.312C120.254 11.32 119.478 10.544 118.486 9.984C117.51 9.424 116.406 9.144 115.174 9.144C113.942 9.144 112.822 9.424 111.814 9.984C110.822 10.544 110.038 11.32 109.462 12.312C108.902 13.288 108.622 14.384 108.622 15.6C108.622 16.816 108.902 17.92 109.462 18.912C110.038 19.888 110.822 20.656 111.814 21.216C112.822 21.776 113.942 22.056 115.174 22.056ZM138.978 24L135.354 18.84C134.906 18.872 134.554 18.888 134.298 18.888H130.146V24H127.746V7.2H134.298C136.474 7.2 138.186 7.72 139.434 8.76C140.682 9.8 141.306 11.232 141.306 13.056C141.306 14.352 140.986 15.456 140.346 16.368C139.706 17.28 138.794 17.944 137.61 18.36L141.594 24H138.978ZM134.226 16.848C135.746 16.848 136.906 16.52 137.706 15.864C138.506 15.208 138.906 14.272 138.906 13.056C138.906 11.84 138.506 10.912 137.706 10.272C136.906 9.616 135.746 9.288 134.226 9.288H130.146V16.848H134.226ZM148.285 9.288H142.525V7.2H156.421V9.288H150.661V24H148.285V9.288ZM159.035 7.2H161.435V24H159.035V7.2ZM177.169 19.8H168.241L166.393 24H163.921L171.529 7.2H173.905L181.537 24H179.017L177.169 19.8ZM176.329 17.88L172.705 9.648L169.081 17.88H176.329Z" fill="white"/>
</svg>
