<svg width="111" height="58" viewBox="0 0 111 58" fill="none" xmlns="http://www.w3.org/2000/svg">
<path d="M54.3104 0.300602C54.7115 0.0150895 55.2643 -0.129026 55.7115 0.151048C60.3237 2.85933 64.9522 5.54043 69.578 8.22696C69.5753 8.3466 69.5699 8.58045 69.5672 8.7001C67.1012 10.0542 64.7111 11.5443 62.2532 12.9175C61.6136 13.3118 60.7437 13.3009 60.1151 12.8903C58.5569 11.9821 57.0068 11.063 55.435 10.1848C55.0557 9.96451 54.7061 10.2826 54.3755 10.4376C52.8904 11.3132 51.3946 12.1697 49.8906 13.01C49.4922 13.2438 48.9448 13.5293 49.0234 14.084C49.0126 16.1941 49.0288 18.3069 49.0234 20.4197C50.5952 21.5998 52.3891 22.4292 54.034 23.4978C54.4595 23.7126 54.9337 24.1939 55.4378 23.9111C57.8902 22.4754 60.3779 21.094 62.8195 19.6339C63.2179 19.3402 63.7138 19.2912 64.1826 19.1879C64.1962 20.2212 64.1826 21.2545 64.1799 22.2878C61.1963 24.1313 58.1612 25.8961 55.0882 27.5765C52.3729 26.0456 49.6873 24.4658 47.0154 22.8588C46.5574 22.527 45.9152 22.4292 45.4111 22.7147C43.7256 23.6854 42.0996 24.7704 40.3626 25.6486C40.3057 19.9438 40.3328 14.239 40.349 8.53695C44.9288 5.66823 49.6873 3.09046 54.3131 0.300602H54.3104ZM47.1048 8.0339C45.8474 8.8007 44.4897 9.4098 43.3272 10.3289C43.3489 13.6435 43.3164 16.9582 43.3435 20.2729C44.3515 20.0798 45.1537 19.3946 46.0127 18.8779C46.0208 16.5394 46.01 14.2037 46.0208 11.8652C48.6386 10.144 51.4081 8.66475 54.0882 7.04413C54.5327 6.84835 55.0259 6.35074 55.5245 6.6852C57.3916 7.71848 59.1828 8.89316 61.0771 9.87206C62.0445 9.9346 62.7789 9.10253 63.6135 8.71641C63.6162 8.59949 63.6217 8.36836 63.6244 8.25415C60.741 6.6852 57.9824 4.89599 55.0936 3.33791C52.4162 4.87967 49.7984 6.51933 47.1048 8.0339Z" fill="white"/>
<path d="M66.8846 15.0259C67.8249 14.4332 68.7246 13.6555 69.8655 13.5195C69.8763 17.5221 69.9142 21.5275 69.8546 25.5301C69.4508 26.1745 68.5999 26.3893 67.9848 26.8081C63.9145 29.1765 59.8415 31.5421 55.7794 33.9241C55.1236 34.3619 54.4082 33.8969 53.8391 33.5489C50.8338 31.6971 47.7337 30.0085 44.7148 28.1867C45.1322 27.2676 46.227 27.012 47.021 26.509C47.46 26.2153 47.9423 26.528 48.3299 26.751C50.5818 28.0779 52.8202 29.4321 55.0911 30.7291C57.3565 29.5626 59.4757 28.1432 61.7032 26.9141C63.4321 25.9135 65.1665 24.9291 66.8683 23.885C66.8927 20.932 66.8493 17.979 66.8846 15.0259Z" fill="white"/>
<path d="M19.5464 43.3896C21.1859 43.1394 22.9528 43.27 24.3917 44.1646C27.1802 45.7308 28.8414 49.2657 27.9444 52.4009C27.3211 54.8944 25.3673 56.9936 22.8986 57.7169C20.5356 58.4429 17.8663 57.7006 16.0398 56.0799C14.6903 54.8645 13.9153 53.1106 13.6659 51.3296C13.2811 47.7022 15.9396 44.0286 19.5464 43.3896ZM19.7795 44.983C17.1184 45.6003 15.0859 48.2324 15.2702 50.9815C15.4789 53.1269 16.8501 55.1935 18.9096 55.9358C20.0911 56.4552 21.4759 56.5096 22.6872 56.0527C25.0096 55.3186 26.5922 52.9067 26.5461 50.4975C26.4702 48.3439 25.183 46.2175 23.175 45.3637C22.1317 44.8253 20.9149 44.7981 19.7795 44.983Z" fill="white"/>
<path d="M71.0036 43.3672C73.2826 43.5874 75.7243 43.1469 77.8732 44.0959C80.1387 45.1727 80.5669 48.259 79.4043 50.2956C78.8705 51.2092 77.8949 51.6797 76.9952 52.1474C78.0439 54.0073 79.1767 55.8237 80.136 57.7325C79.5235 57.7516 78.9111 57.7543 78.2987 57.7461C77.3068 55.9923 76.3231 54.2302 75.3747 52.4519C74.475 52.3105 73.5645 52.354 72.6594 52.3431C72.6295 54.1405 72.6377 55.9406 72.6458 57.738C72.0849 57.7461 71.5266 57.7516 70.9711 57.757C70.9873 52.9604 70.9115 48.1611 71.0036 43.3672ZM72.6729 44.9552C72.6214 46.932 72.6295 48.9116 72.6648 50.8884C74.0577 50.8612 75.5319 51.0978 76.8299 50.456C77.5778 50.2086 78.1252 49.537 78.3529 48.8001C78.426 47.7885 78.5968 46.5513 77.6645 45.8661C76.25 44.7975 74.3476 44.9606 72.6729 44.9552Z" fill="white"/>
<path d="M1.02067 46.5266C2.84715 43.1603 7.7304 42.2548 10.7817 44.4329C11.153 44.6286 11.4186 44.9522 11.5703 45.3438C11.2749 45.6103 10.9823 45.8795 10.6896 46.1514C9.61649 45.5423 8.51085 44.7891 7.21822 44.8734C5.90121 44.7564 4.53 45.1072 3.5436 46.0127C1.90952 47.4729 1.41632 49.8603 1.793 51.9568C2.02334 53.5421 2.90135 55.1219 4.38367 55.8289C6.5543 56.9057 9.31027 56.2993 11.0012 54.6107C11.2993 54.9886 12.0066 55.2252 11.9226 55.7854C9.11787 59.0538 3.04497 58.6731 0.985447 54.7684C-0.296337 52.2369 -0.372215 49.0282 1.02067 46.5266Z" fill="white"/>
<path d="M30.4861 43.5135C31.1853 43.5271 32.0172 43.2525 32.5863 43.8044C35.1011 45.8438 37.521 48.0056 40.0765 49.9933C40.174 47.8234 40.0711 45.648 40.1388 43.4754C40.6889 43.4754 41.239 43.4754 41.7891 43.4836C41.7593 48.2394 41.7864 52.9925 41.781 57.7483L40.1144 57.7646C40.1171 55.8966 40.128 54.0258 40.109 52.155C37.521 50.0014 34.9439 47.8288 32.272 45.7867C32.1744 49.7649 32.2503 53.7484 32.2313 57.7293C31.6758 57.7456 31.123 57.7592 30.5701 57.7673C30.3561 56.4431 30.4807 55.0999 30.4509 53.7647C30.4753 50.3468 30.4021 46.9288 30.4861 43.5135Z" fill="white"/>
<path d="M46.1418 44.0989C47.8708 42.8535 50.223 43.1418 52.0847 43.9195C51.96 44.3817 51.8245 44.8385 51.689 45.2981C50.1715 44.863 48.2854 44.4143 46.9413 45.5129C46.0687 46.19 45.9657 47.5631 46.7787 48.3354C48.3938 49.8744 51.0224 50.0566 52.2662 52.0498C53.4694 53.7166 52.8353 56.2454 51.0847 57.2597C49.1498 58.3745 46.719 58.0999 44.7191 57.2977C44.7273 56.7539 44.7625 56.2101 44.8113 55.6717C46.3749 56.1421 48.0984 56.7811 49.6945 56.0741C50.9329 55.6336 51.7297 54.0021 50.895 52.8573C49.7541 51.2041 47.513 51.0681 46.0063 49.8853C44.1663 48.5611 44.1392 45.2899 46.1418 44.0989Z" fill="white"/>
<path d="M59.6296 43.5585C61.372 43.0582 63.3259 43.1751 64.9464 44.0262C67.1279 45.1655 68.7321 47.4659 68.8812 49.9458C69.2199 52.9559 67.4612 56.034 64.735 57.3039C62.8516 58.2338 60.5374 58.2066 58.6594 57.2767C56.0254 56.0503 54.2369 53.1381 54.4509 50.215C54.5675 47.2022 56.7489 44.4205 59.6296 43.5585ZM60.6512 44.9534C58.0334 45.5245 55.8953 48.0288 56.1121 50.7725C56.001 54.3318 59.8951 57.2495 63.2581 56.1265C65.7512 55.4032 67.5398 52.8118 67.2823 50.215C67.1712 46.9629 63.8624 44.2546 60.6512 44.9534Z" fill="white"/>
<path d="M81.082 43.5325C84.7025 43.4075 88.3283 43.5108 91.9515 43.4782C91.9569 43.9513 91.9596 44.4244 91.9677 44.8976C90.4312 44.9275 88.892 44.8976 87.3555 44.922C87.2796 49.202 87.3636 53.482 87.3121 57.7646C86.8243 57.7592 86.3392 57.7538 85.8569 57.7429C85.8623 53.4792 85.8569 49.2156 85.8596 44.9492C84.277 44.8649 82.689 44.9519 81.1064 44.8894C81.0983 44.4353 81.0929 43.9839 81.082 43.5325Z" fill="white"/>
<path d="M94.0799 43.4394C94.6137 43.3796 95.153 43.4068 95.6869 43.4721C95.6896 48.2279 95.6923 52.9864 95.6869 57.745C95.1503 57.745 94.6164 57.7477 94.0853 57.7504C94.0609 52.981 94.0718 48.2089 94.0799 43.4394Z" fill="white"/>
<path d="M103.703 43.4997C104.416 43.5269 105.188 43.3447 105.871 43.5949C106.879 46.1645 107.741 48.7912 108.738 51.3663C109.453 53.5062 110.38 55.5755 111.001 57.7454C110.418 57.7617 109.841 57.759 109.261 57.7563C108.73 56.2689 108.264 54.7543 107.616 53.3132C105.638 53.3594 103.657 53.3512 101.681 53.3241C100.969 54.7108 100.562 56.2254 99.9254 57.6448C99.3482 57.8922 98.6788 57.7128 98.0664 57.7291C100.007 53.0114 101.763 48.2175 103.703 43.4997ZM104.717 45.036C103.928 47.2658 102.939 49.4302 102.283 51.7034C103.893 51.7089 105.502 51.7279 107.109 51.698C106.329 49.471 105.63 47.2114 104.717 45.036Z" fill="white"/>
</svg>
