<svg width="33" height="32" viewBox="0 0 33 32" fill="none" xmlns="http://www.w3.org/2000/svg">
<path d="M31.4993 15.0005H18.833C18.281 15.0005 17.833 14.5525 17.833 14.0005C17.833 13.4485 18.281 13.0005 18.833 13.0005H31.4993C32.0513 13.0005 32.4993 13.4485 32.4993 14.0005C32.4993 14.5525 32.0513 15.0005 31.4993 15.0005Z" fill="#FF3F00"/>
<path d="M26.4987 20.0004C26.2427 20.0004 25.9868 19.9029 25.792 19.7072C25.4014 19.3163 25.4014 18.683 25.792 18.2924L30.0853 13.9993L25.792 9.706C25.4014 9.31539 25.4014 8.68211 25.792 8.29149C26.1828 7.90064 26.8161 7.90064 27.2067 8.29149L32.2066 13.2913C32.5972 13.682 32.5972 14.3152 32.2066 14.7058L27.2067 19.7057C27.0107 19.9029 26.7548 20.0004 26.4987 20.0004Z" fill="#FF3F00"/>
<path d="M11.1664 32C10.881 32 10.6103 31.9599 10.3398 31.876L2.31586 29.2027C1.2241 28.8214 0.5 27.8041 0.5 26.6669V2.66764C0.5 1.19698 1.69601 0.000976562 3.16666 0.000976562C3.45181 0.000976562 3.72256 0.0410144 3.9933 0.124996L12.017 2.79825C13.109 3.17959 13.8328 4.19689 13.8328 5.33406V29.3333C13.8328 30.804 12.6371 32 11.1664 32ZM3.16666 2.00091C2.79998 2.00091 2.49994 2.30095 2.49994 2.66764V26.6669C2.49994 26.9508 2.69061 27.2147 2.96257 27.3095L10.9489 29.9707C11.0063 29.9893 11.081 30 11.1664 30C11.5331 30 11.8329 29.7 11.8329 29.3333V5.33406C11.8329 5.05014 11.6422 4.78623 11.3703 4.6915L3.38394 2.03021C3.32657 2.01166 3.25187 2.00091 3.16666 2.00091Z" fill="#FF3F00"/>
<path d="M20.8329 10.6674C20.2809 10.6674 19.8329 10.2194 19.8329 9.66742V3.66761C19.8329 2.74894 19.0852 2.00091 18.1665 2.00091H3.16696C2.61498 2.00091 2.16699 1.55293 2.16699 1.00095C2.16699 0.448961 2.61498 0.000976562 3.16696 0.000976562H18.1665C20.1891 0.000976562 21.8329 1.64497 21.8329 3.66761V9.66742C21.8329 10.2194 21.3849 10.6674 20.8329 10.6674Z" fill="#FF3F00"/>
<path d="M18.1663 28.0001H12.833C12.281 28.0001 11.833 27.5521 11.833 27.0001C11.833 26.4481 12.281 26.0002 12.833 26.0002H18.1663C19.085 26.0002 19.8328 25.2521 19.8328 24.3335V18.3336C19.8328 17.7817 20.2807 17.3337 20.8327 17.3337C21.3847 17.3337 21.8327 17.7817 21.8327 18.3336V24.3335C21.8327 26.3561 20.1889 28.0001 18.1663 28.0001Z" fill="#FF3F00"/>
</svg>
