<svg width="38" height="36" viewBox="0 0 38 36" fill="none" xmlns="http://www.w3.org/2000/svg">
<path d="M35.5125 12.8C34.7831 12.694 34.087 12.4249 33.4761 12.0126C32.8651 11.6004 32.355 11.0556 31.9838 10.4188C31.6126 9.78211 31.3898 9.06984 31.332 8.33506C31.2742 7.60028 31.3829 6.86192 31.65 6.17499C31.8198 5.72589 31.8449 5.23492 31.7216 4.77089C31.5983 4.30687 31.3329 3.89306 30.9625 3.58749C29.3276 2.21457 27.4666 1.13604 25.4625 0.399985C25.0062 0.230464 24.508 0.209284 24.0389 0.339462C23.5698 0.469639 23.1538 0.744535 22.85 1.12499C22.3929 1.70955 21.8086 2.18234 21.1415 2.5075C20.4745 2.83266 19.7421 3.00165 19 3.00165C18.2579 3.00165 17.5256 2.83266 16.8585 2.5075C16.1914 2.18234 15.6072 1.70955 15.15 1.12499C14.8463 0.744535 14.4303 0.469639 13.9612 0.339462C13.4921 0.209284 12.9939 0.230464 12.5375 0.399985C10.6871 1.07954 8.95702 2.05008 7.41253 3.27499C7.02321 3.58319 6.74279 4.00794 6.61233 4.48705C6.48187 4.96615 6.50822 5.47444 6.68753 5.93749C6.97597 6.6426 7.09515 7.4055 7.03549 8.16498C6.97584 8.92447 6.73902 9.65941 6.34403 10.3108C5.94904 10.9623 5.40687 11.5121 4.76102 11.9161C4.11517 12.3202 3.38361 12.5672 2.62503 12.6375C2.13254 12.6901 1.66997 12.8995 1.30542 13.2348C0.940867 13.5701 0.693602 14.0136 0.600027 14.5C0.367274 15.6521 0.250027 16.8246 0.250027 18C0.248316 18.984 0.327752 19.9665 0.487527 20.9375C0.567046 21.4394 0.80971 21.9012 1.178 22.2515C1.54629 22.6017 2.0197 22.8208 2.52503 22.875C3.30027 22.9477 4.04681 23.2051 4.70216 23.6256C5.35751 24.0461 5.9026 24.6175 6.29182 25.2919C6.68103 25.9662 6.90304 26.7241 6.93927 27.5019C6.97549 28.2797 6.82488 29.0548 6.50003 29.7625C6.28744 30.2228 6.2347 30.7409 6.3502 31.2346C6.4657 31.7283 6.74281 32.1693 7.13753 32.4875C8.76267 33.8355 10.6057 34.8965 12.5875 35.625C12.841 35.7128 13.1069 35.7592 13.375 35.7625C13.7427 35.7617 14.1049 35.6727 14.4311 35.5031C14.7574 35.3334 15.0382 35.0881 15.25 34.7875C15.6955 34.1384 16.2928 33.6078 16.9898 33.2419C17.6869 32.8759 18.4627 32.6856 19.25 32.6875C20.0128 32.6885 20.7649 32.8675 21.4463 33.2104C22.1277 33.5533 22.7197 34.0505 23.175 34.6625C23.4779 35.0696 23.9069 35.3652 24.3953 35.5031C24.8837 35.641 25.4039 35.6135 25.875 35.425C27.6871 34.6957 29.3742 33.6877 30.875 32.4375C31.2521 32.1258 31.5205 31.7025 31.6418 31.2286C31.7631 30.7547 31.731 30.2545 31.55 29.8C31.256 29.104 31.1278 28.3491 31.1756 27.5951C31.2233 26.841 31.4457 26.1084 31.8251 25.455C32.2045 24.8016 32.7306 24.2453 33.3619 23.8301C33.9932 23.4149 34.7123 23.1521 35.4625 23.0625C35.949 22.9952 36.4014 22.7748 36.7543 22.4332C37.1071 22.0916 37.3421 21.6465 37.425 21.1625C37.6258 20.1199 37.7345 19.0616 37.75 18C37.7503 16.8802 37.6456 15.7628 37.4375 14.6625C37.3531 14.1891 37.1217 13.7544 36.7761 13.42C36.4306 13.0857 35.9884 12.8687 35.5125 12.8V12.8ZM25.25 18C25.25 19.2361 24.8835 20.4445 24.1967 21.4723C23.51 22.5001 22.5338 23.3012 21.3918 23.7742C20.2498 24.2473 18.9931 24.3711 17.7807 24.1299C16.5683 23.8887 15.4547 23.2935 14.5806 22.4194C13.7065 21.5453 13.1113 20.4317 12.8701 19.2193C12.629 18.0069 12.7527 16.7503 13.2258 15.6082C13.6988 14.4662 14.4999 13.4901 15.5277 12.8033C16.5555 12.1165 17.7639 11.75 19 11.75C20.6576 11.75 22.2473 12.4085 23.4194 13.5806C24.5915 14.7527 25.25 16.3424 25.25 18Z" fill="white"/>
</svg>
